<svg xmlns="http://www.w3.org/2000/svg" width="1920" height="1080"><rect x="509.5" y="852.0" width="16.5" height="17.0" id="9ea60083-0901-4dde-86a1-8945b3f9ac66" class="armchair2" /><rect x="743.5" y="144.0" width="48.5" height="113.0" id="55d2ef81-4f61-480b-8b58-d3a754f2f12b" class="sofa2" /><rect x="569.0" y="852.0" width="16.0" height="17.0" id="e849daed-a9a1-4b04-a54b-b2b929fc1c9c" class="armchair2" /><rect x="302.0" y="146.0" width="48.0" height="113.0" id="21c8865e-8a59-4cd9-9e88-f015f06483d0" class="sofa2" /><rect x="540.5" y="904.0" width="79.5" height="38.0" id="a600cbf5-aef4-4d26-a8fc-d639026051ce" class="table2" /><rect x="501.5" y="245.0" width="121.5" height="51.0" id="453cf8e0-8e99-4366-806e-5434caba29a1" class="sofa2" /><rect x="499.5" y="545.0" width="37.5" height="86.0" id="cd7cda18-301a-4f1e-82a4-ac93d3562d09" class="tub" /><rect x="690.0" y="544.0" width="39.0" height="84.0" id="84ce5fdc-c46b-441e-a314-0d9bc786d857" class="tub" /><rect x="847.0" y="917.5" width="68.0" height="34.5" id="947e1726-44d2-433c-a164-484099054831" class="sink3" /><rect x="867.5" y="497.5" width="51.5" height="82.5" id="71af4f9d-ac8c-4195-9f8d-6b904f7c3ac3" class="bed" /><rect x="509.5" y="957.5" width="17.5" height="16.5" id="8fde8a2b-1a38-45c6-abb3-650fed83650b" class="armchair2" /><rect x="564.5" y="394.0" width="55.5" height="63.0" id="6030cb3c-e37c-45dd-8b5c-545c5bd0be68" class="door1" /><rect x="65.5" y="196.0" width="65.5" height="58.0" id="f15f0334-fcf0-4e8a-b65d-f21f39c255d6" class="door1" /><rect x="569.0" y="957.5" width="17.0" height="16.5" id="237591c4-b20d-4f00-b911-fa0d2055cfba" class="armchair2" /><rect x="677.0" y="779.5" width="57.0" height="63.5" id="14500230-d97c-4eac-ad7d-cea8e760ddf3" class="door1" /><rect x="558.5" y="121.5" width="43.5" height="43.5" id="a108c7dc-37ee-4ce0-adac-f214771fd817" class="table1" /><polygon points="369.0,1.0 929.0,1.0 929.0,16.0 369.0,16.0" fill="orange" id="5fbc0cef-d128-4d2b-82fc-e023c6ea737a" class="wall" /><polygon points="398.0,282.0 608.0,282.0 608.0,296.0 398.0,296.0" fill="orange" id="64554632-1239-4405-acb7-45e282da9839" class="wall" /><polygon points="941.0,0.0 955.0,0.0 955.0,608.0 941.0,608.0" fill="orange" id="2b663d4b-a77a-4e3d-b7d6-33224a30be28" class="wall" /><polygon points="44.0,1.0 584.0,1.0 584.0,15.0 44.0,15.0" fill="orange" id="26b73de7-c2e5-4724-ab69-82bdfb8ac328" class="wall" /><polygon points="941.0,319.0 955.0,319.0 955.0,971.0 941.0,971.0" fill="orange" id="35184a9f-8a1c-4d4e-8996-4eaca7b70be0" class="wall" /><polygon points="424.0,330.0 440.0,330.0 440.0,1002.0 424.0,1002.0" fill="orange" id="fc7f468c-254a-4afd-b0f5-f20b2c64bc05" class="wall" /><polygon points="502.0,332.0 511.0,332.0 511.0,353.0 502.0,353.0" fill="orange" id="08750209-1d1a-491c-80dd-e09a4e3f3b9b" class="wall" /><polygon points="0.0,251.0 24.0,251.0 24.0,261.0 0.0,261.0" fill="orange" id="99c5c895-60d9-480d-b3ff-14048122e880" class="wall" /><polygon points="462.0,987.0 906.0,987.0 906.0,1001.0 462.0,1001.0" fill="orange" id="8d03078d-d5f2-47e0-82d6-c5ea3b56ebbb" class="wall" /><polygon points="0.0,130.0 24.0,130.0 24.0,143.0 0.0,143.0" fill="orange" id="5bc89e97-e3bc-4129-b64a-934a7d93a4ab" class="wall" /><polygon points="613.0,717.0 623.0,717.0 623.0,739.0 613.0,739.0" fill="orange" id="93fb099d-af41-45c1-a3ec-cb4ce7f78d31" class="wall" /><polygon points="732.0,716.0 746.0,716.0 746.0,738.0 732.0,738.0" fill="orange" id="f07f0e4c-4c4d-49e9-a9ee-0b7b136021b2" class="wall" /><polygon points="2.0,261.0 17.0,261.0 17.0,346.0 2.0,346.0" fill="orange" id="8c47ffd7-42de-4f5f-a268-1aa74326c86b" class="wall" /><polygon points="1.0,5.0 18.0,5.0 18.0,136.0 1.0,136.0" fill="orange" id="3ef0370f-5139-4bdf-a045-96d25d959c11" class="wall" /><polygon points="620.0,329.0 632.0,329.0 632.0,355.0 620.0,355.0" fill="orange" id="23433d25-260c-48aa-8c6b-ff7c738dec6b" class="wall" /><polygon points="9.0,334.0 502.0,334.0 502.0,350.0 9.0,350.0" fill="orange" id="879a3738-59cd-4e4d-85d4-d12930bd5862" class="wall" /><polygon points="749.0,351.0 763.0,351.0 763.0,732.0 749.0,732.0" fill="orange" id="b8f0315a-9e14-46c7-9b58-d5252163fc7c" class="wall" /><polygon points="439.0,719.0 615.0,719.0 615.0,733.0 439.0,733.0" fill="orange" id="38f1c258-2150-409b-997e-2d68d0a2102c" class="wall" /><polygon points="634.0,334.0 937.0,334.0 937.0,350.0 634.0,350.0" fill="orange" id="45eb7898-f25b-4ae9-9539-8b7b750467f8" class="wall" /></svg>