<svg xmlns="http://www.w3.org/2000/svg" width="1920" height="1080"><rect x="917.0" y="476.5" width="35.0" height="70.5" id="7ffa6d92-138e-4c11-82c3-fed6838896cc" class="sink3" /><rect x="453.5" y="148.5" width="16.5" height="16.5" id="2158ff1b-43c0-4177-ad01-cca49e9a5edd" class="armchair2" /><rect x="393.0" y="43.0" width="17.0" height="17.0" id="1a3a0d41-0d58-4e2c-8b16-2df341cfef48" class="armchair2" /><rect x="453.0" y="43.0" width="17.0" height="17.0" id="eec27f4b-da06-4e4f-b8c5-4891fde6e84a" class="armchair2" /><rect x="392.5" y="148.0" width="16.5" height="16.0" id="3986d259-418f-4ba2-b086-84599f210587" class="armchair2" /><rect x="1173.5" y="267.0" width="37.5" height="85.0" id="89752177-7a58-431a-b32e-34ff877e7307" class="tub" /><rect x="981.0" y="266.5" width="38.0" height="82.5" id="e703546c-b26e-43b1-927b-33f0fc61174c" class="tub" /><rect x="470.5" y="499.0" width="115.5" height="48.0" id="3141ca23-98fd-4e0a-bc4d-12239aab1036" class="sofa2" /><rect x="542.0" y="1113.5" width="45.0" height="43.5" id="98673dff-6ce1-44c2-8a72-2165a84cf2d4" class="table1" /><rect x="1036.0" y="58.5" width="36.0" height="36.5" id="ab7e42d1-6c71-4403-860a-3a26d1310857" class="toilet-seat" /><rect x="125.5" y="1092.5" width="53.5" height="81.5" id="9b83927e-3354-4dd7-896c-1259dc31ba2f" class="bed" /><rect x="422.0" y="95.5" width="79.0" height="36.5" id="b4176dac-9f00-41c6-980e-01db2edec676" class="table2" /><rect x="521.0" y="892.5" width="59.0" height="65.5" id="0a459546-45e3-4a22-8339-a6b8655e2f5d" class="door1" /><rect x="459.0" y="627.5" width="45.0" height="43.5" id="3ccc65db-91f6-41c9-8571-b063efebe8af" class="table1" /><rect x="1171.5" y="62.0" width="35.5" height="37.0" id="c5a48efd-4ed8-4ea0-a888-772654a872ea" class="toilet-seat" /><rect x="352.5" y="1114.0" width="44.5" height="44.0" id="8ccd40a1-695c-45b1-9c1e-24494b8b12f5" class="table1" /><rect x="393.0" y="743.5" width="48.0" height="48.5" id="2a2b47c1-3ec1-49a7-9777-9afbd151ac60" class="sofa1" /><rect x="924.5" y="679.5" width="64.5" height="56.5" id="59616dd8-4432-42ed-a8c5-3d8feb02a8b7" class="door1" /><rect x="654.5" y="625.5" width="43.5" height="43.5" id="8fc0ed00-13b1-4543-867c-fa7b9403e0e6" class="table1" /><rect x="557.5" y="743.5" width="44.5" height="48.5" id="76b31a2b-4ffb-4b9c-b563-43e8b750a48f" class="sofa1" /><rect x="598.5" y="180.5" width="64.5" height="57.5" id="df6a32c8-cc63-4c5b-b1cf-61495b16f291" class="door1" /><rect x="732.0" y="744.0" width="45.0" height="49.0" id="359adc63-976d-44f0-bdb8-0fc3d324aa58" class="sofa1" /><polygon points="494.0,0.0 1242.0,0.0 1242.0,15.0 494.0,15.0" fill="orange" id="2ac4b608-4a36-4672-9364-26391b62bd00" class="wall" /><polygon points="639.0,235.0 665.0,235.0 665.0,247.0 639.0,247.0" fill="orange" id="b8819558-157b-4f54-8e6c-3351a48a3319" class="wall" /><polygon points="313.0,35.0 329.0,35.0 329.0,896.0 313.0,896.0" fill="orange" id="a4222cca-a598-4368-a74a-f0ad9065386e" class="wall" /><polygon points="640.0,116.0 667.0,116.0 667.0,128.0 640.0,128.0" fill="orange" id="80473b16-c0f4-4e80-ab9d-a035992923c4" class="wall" /><polygon points="964.0,733.0 992.0,733.0 992.0,746.0 964.0,746.0" fill="orange" id="597a72da-7754-4f35-a4a5-ae52c67ab1af" class="wall" /><polygon points="23.0,1186.0 725.0,1186.0 725.0,1202.0 23.0,1202.0" fill="orange" id="5714a19c-ced8-45fb-b07d-c028660f932d" class="wall" /><polygon points="965.0,616.0 993.0,616.0 993.0,626.0 965.0,626.0" fill="orange" id="4158eb78-8f2a-45e3-aa3d-4ecf88b4314f" class="wall" /><polygon points="0.0,946.0 15.0,946.0 15.0,1194.0 0.0,1194.0" fill="orange" id="d58d2417-a341-41a3-85fb-141692657b28" class="wall" /><polygon points="1228.0,6.0 1244.0,6.0 1244.0,382.0 1228.0,382.0" fill="orange" id="3649f366-8689-44ab-a3aa-42f124b62ba7" class="wall" /><polygon points="576.0,934.0 585.0,934.0 585.0,958.0 576.0,958.0" fill="orange" id="3829220b-a0c8-465b-91be-f176de45ec04" class="wall" /><polygon points="457.0,934.0 466.0,934.0 466.0,956.0 457.0,956.0" fill="orange" id="6b02789a-5918-4757-8809-a3ad1e1c0b91" class="wall" /><polygon points="642.0,14.0 657.0,14.0 657.0,118.0 642.0,118.0" fill="orange" id="7c48cea9-608f-4760-93d7-9e58aa384822" class="wall" /><polygon points="650.0,383.0 1235.0,383.0 1235.0,398.0 650.0,398.0" fill="orange" id="75ee9b2b-54f2-441d-886e-4cd21476e5fa" class="wall" /><polygon points="969.0,746.0 985.0,746.0 985.0,1196.0 969.0,1196.0" fill="orange" id="683afa2b-538e-4983-998c-9131f0a19c1c" class="wall" /><polygon points="10.0,937.0 460.0,937.0 460.0,953.0 10.0,953.0" fill="orange" id="e2baffa6-3fff-429c-b3a2-bae59fddebae" class="wall" /><polygon points="642.0,246.0 658.0,246.0 658.0,383.0 642.0,383.0" fill="orange" id="72705d86-097b-4f72-aad4-520fae7f52c2" class="wall" /><polygon points="969.0,395.0 984.0,395.0 984.0,618.0 969.0,618.0" fill="orange" id="ff066e21-ab1c-40c9-b754-2171de52a938" class="wall" /><polygon points="818.0,942.0 833.0,942.0 833.0,1193.0 818.0,1193.0" fill="orange" id="0f8de794-0f95-422d-b237-44eac8428c36" class="wall" /><polygon points="585.0,937.0 821.0,937.0 821.0,953.0 585.0,953.0" fill="orange" id="c2abe7f2-83f0-4403-af78-66e6f7eb68f6" class="wall" /></svg>