<svg xmlns="http://www.w3.org/2000/svg" width="1920" height="1080"><rect x="206.0" y="868.0" width="119.0" height="49.0" id="1e339c62-cfba-4b0d-9f06-bfbd6283edda" class="sofa2" /><rect x="1289.0" y="656.0" width="17.0" height="17.0" id="fb69ebf0-287b-4cdd-902e-4613487a4b26" class="armchair2" /><rect x="1229.5" y="761.5" width="16.5" height="16.5" id="cf558940-2057-4155-af30-ddb87fc15c77" class="armchair2" /><rect x="1268.5" y="880.5" width="67.5" height="33.5" id="dc087a0a-12a9-4318-8c88-19447e4cb36b" class="sink3" /><rect x="1230.0" y="656.0" width="17.0" height="17.0" id="7e599c4c-623b-46ae-b898-d784709d5be1" class="armchair2" /><rect x="1289.0" y="761.5" width="17.0" height="16.5" id="dee57aa7-15c0-4a94-910d-dda401a166b0" class="armchair2" /><rect x="406.0" y="418.5" width="88.0" height="36.5" id="6e85dc97-5502-407d-9415-a213d0affe54" class="tub" /><rect x="1260.0" y="709.0" width="80.0" height="37.0" id="0993590c-9d64-4978-852a-96e23e19cd56" class="table2" /><rect x="579.5" y="991.5" width="58.5" height="65.5" id="e43cfa78-83fd-4b48-a4a3-35f24333e183" class="door1" /><rect x="495.5" y="614.0" width="58.5" height="64.0" id="0998ef95-b339-433e-aa50-005d76e86307" class="door1" /><rect x="330.0" y="735.5" width="44.0" height="44.5" id="f7522217-bbde-4aa8-bc33-e829ec02b2ec" class="table1" /><rect x="90.0" y="735.0" width="44.0" height="44.0" id="c435e155-8823-4434-a7a4-dd146db41cc2" class="table1" /><rect x="632.5" y="151.5" width="43.5" height="43.5" id="5d022e37-2058-401c-9d46-fcecd6b9b744" class="table1" /><rect x="408.5" y="99.5" width="81.5" height="52.5" id="15319960-636a-480a-bdd1-36f8f072919d" class="bed" /><rect x="901.5" y="251.5" width="83.5" height="52.5" id="d1800865-018d-48e0-b6d7-9899e16b03ac" class="bed" /><rect x="598.0" y="393.5" width="58.0" height="64.5" id="9af19ffc-e9c0-4ca9-bffb-06835ab05a9a" class="door1" /><polygon points="552.0,554.0 1379.0,554.0 1379.0,571.0 552.0,571.0" fill="orange" id="54630fa5-6598-4d4d-9949-6f93f58f2604" class="wall" /><polygon points="652.0,330.0 661.0,330.0 661.0,352.0 652.0,352.0" fill="orange" id="31922b0a-b6ff-4d22-ab34-751d392b7ab3" class="wall" /><polygon points="635.0,928.0 644.0,928.0 644.0,949.0 635.0,949.0" fill="orange" id="596813f4-aef0-4ad1-8a03-073a81c8cafe" class="wall" /><polygon points="551.0,549.0 559.0,549.0 559.0,570.0 551.0,570.0" fill="orange" id="c1c552b6-da4b-4f9c-9ddd-de53ee48a6b3" class="wall" /><polygon points="432.0,548.0 442.0,548.0 442.0,572.0 432.0,572.0" fill="orange" id="6e8e46d3-a15a-42bb-bdc0-cd22b3155e04" class="wall" /><polygon points="286.0,0.0 1008.0,0.0 1008.0,15.0 286.0,15.0" fill="orange" id="111650cb-fe3f-4d8b-9510-4e715c7b7422" class="wall" /><polygon points="515.0,926.0 524.0,926.0 524.0,951.0 515.0,951.0" fill="orange" id="dd34d016-d354-40fd-aa0f-32dd7a8cee41" class="wall" /><polygon points="532.0,327.0 543.0,327.0 543.0,353.0 532.0,353.0" fill="orange" id="5391cf9a-fb56-4ccd-9ce3-0102f6c2075e" class="wall" /><polygon points="6.0,555.0 433.0,555.0 433.0,570.0 6.0,570.0" fill="orange" id="a7b31795-040b-41e6-8a2b-95492a400492" class="wall" /><polygon points="1.0,570.0 15.0,570.0 15.0,931.0 1.0,931.0" fill="orange" id="276da759-cf49-4d60-9bd0-2aeef7d9e9d2" class="wall" /><polygon points="644.0,930.0 1373.0,930.0 1373.0,946.0 644.0,946.0" fill="orange" id="ccfd080f-a866-4004-bc49-758ed7c506fe" class="wall" /><polygon points="1370.0,560.0 1386.0,560.0 1386.0,935.0 1370.0,935.0" fill="orange" id="f3c318ad-cf61-432a-946e-dc0b177ef1ad" class="wall" /><polygon points="1005.0,15.0 1020.0,15.0 1020.0,554.0 1005.0,554.0" fill="orange" id="dcd16f49-c1d7-4898-911e-c6f08da41208" class="wall" /><polygon points="271.0,16.0 286.0,16.0 286.0,552.0 271.0,552.0" fill="orange" id="96dae450-65f1-4221-ae2a-03b249851fde" class="wall" /><polygon points="18.0,930.0 510.0,930.0 510.0,946.0 18.0,946.0" fill="orange" id="8a7289e3-a3f0-4c0a-bff7-261ca16bfbe8" class="wall" /><polygon points="285.0,336.0 534.0,336.0 534.0,352.0 285.0,352.0" fill="orange" id="f4e09954-c064-483b-8d8e-fc0e14c1d121" class="wall" /><polygon points="663.0,335.0 1005.0,335.0 1005.0,352.0 663.0,352.0" fill="orange" id="7316b785-10b6-409a-9925-46e917356b89" class="wall" /></svg>